# xmcd CD database file
#
# Track frame offsets:
#	150
#	15065
#	30075
#	49365
#	84152
#	106237
#	134717
#	157652
#	175895
#	202075
#	232020
#
# Disc length: 3505 seconds
#
# Revision: 0
# Processed by: cddbd v1.5PL3 Copyright (c) Steve Scherf et al.
# Submitted via: CDex 1.50Beta5
#
DISCID=7c0daf0b
DTITLE=Vari - Nuova Era n.19
DYEAR=1900
DGENRE=New Age
TTITLE0=John Sposito - Climb
TTITLE1=Dashiell Rae - Field of drems
TTITLE2=Kitaro - Mirage
TTITLE3=Andreas Leifeld - 77 Wind games
TTITLE4=Mac Dowell and Krell Echnaton's return
TTITLE5=G.E.N.E. - Magic words of stone
TTITLE6=Suzanne Ciani - Full Moon sonata
TTITLE7=Davol - Cascade
TTITLE8=Daniel Paul - Oceania
TTITLE9=Natural elemnts - The old Homestead
TTITLE10=David Parsons - K 2
EXTD=
EXTT0=
EXTT1=
EXTT2=
EXTT3=
EXTT4=
EXTT5=
EXTT6=
EXTT7=
EXTT8=
EXTT9=
EXTT10=
PLAYORDER=
